<mxfile host="app.diagrams.net" modified="2023-08-23T18:18:03.986Z" agent="Mozilla/5.0 (X11; Linux x86_64; rv:109.0) Gecko/20100101 Firefox/116.0" etag="-YSg44xR4VzzAHMcfLAS" version="21.6.5" type="github">
  <diagram name="Page-1" id="6Fb1UpeegRMnGslX5uGk">
    <mxGraphModel dx="1215" dy="650" grid="1" gridSize="10" guides="1" tooltips="1" connect="1" arrows="1" fold="1" page="1" pageScale="1" pageWidth="850" pageHeight="1100" math="0" shadow="0">
      <root>
        <mxCell id="0" />
        <mxCell id="1" parent="0" />
        <mxCell id="Snfnm1RZUHgXp-elTZEX-1" value="&lt;font style=&quot;font-size: 20px;&quot;&gt;Model&lt;/font&gt;" style="rounded=0;whiteSpace=wrap;html=1;" parent="1" vertex="1">
          <mxGeometry x="120" y="120" width="120" height="60" as="geometry" />
        </mxCell>
        <mxCell id="Snfnm1RZUHgXp-elTZEX-2" value="&lt;font style=&quot;font-size: 20px;&quot;&gt;Controller&lt;/font&gt;" style="rounded=0;whiteSpace=wrap;html=1;" parent="1" vertex="1">
          <mxGeometry x="300" y="280" width="120" height="60" as="geometry" />
        </mxCell>
        <mxCell id="Snfnm1RZUHgXp-elTZEX-3" value="&lt;font style=&quot;font-size: 20px;&quot;&gt;View&lt;/font&gt;" style="rounded=0;whiteSpace=wrap;html=1;" parent="1" vertex="1">
          <mxGeometry x="480" y="120" width="120" height="60" as="geometry" />
        </mxCell>
        <mxCell id="Snfnm1RZUHgXp-elTZEX-6" value="" style="endArrow=classic;html=1;rounded=0;exitX=0;exitY=0;exitDx=0;exitDy=0;entryX=0.667;entryY=1;entryDx=0;entryDy=0;entryPerimeter=0;" parent="1" source="Snfnm1RZUHgXp-elTZEX-2" target="Snfnm1RZUHgXp-elTZEX-1" edge="1">
          <mxGeometry width="50" height="50" relative="1" as="geometry">
            <mxPoint x="155" y="280" as="sourcePoint" />
            <mxPoint x="205" y="230" as="targetPoint" />
            <Array as="points" />
          </mxGeometry>
        </mxCell>
        <mxCell id="Snfnm1RZUHgXp-elTZEX-10" value="&lt;div style=&quot;font-size: 16px;&quot;&gt;&lt;font style=&quot;font-size: 16px;&quot;&gt;Daten&lt;/font&gt;&lt;/div&gt;&lt;div style=&quot;font-size: 16px;&quot;&gt;&lt;font style=&quot;font-size: 16px;&quot;&gt;Anfordern&lt;/font&gt;&lt;/div&gt;" style="edgeLabel;html=1;align=center;verticalAlign=middle;resizable=0;points=[];" parent="Snfnm1RZUHgXp-elTZEX-6" vertex="1" connectable="0">
          <mxGeometry x="-0.3383" relative="1" as="geometry">
            <mxPoint x="-14" y="13" as="offset" />
          </mxGeometry>
        </mxCell>
        <mxCell id="Snfnm1RZUHgXp-elTZEX-7" value="&lt;font style=&quot;font-size: 16px;&quot;&gt;Verarbeitete&lt;br&gt;Visualisierung&lt;/font&gt;" style="endArrow=classic;html=1;rounded=0;exitX=0.333;exitY=1.033;exitDx=0;exitDy=0;exitPerimeter=0;entryX=1;entryY=0;entryDx=0;entryDy=0;" parent="1" source="Snfnm1RZUHgXp-elTZEX-3" target="Snfnm1RZUHgXp-elTZEX-2" edge="1">
          <mxGeometry x="0.188" y="28" width="50" height="50" relative="1" as="geometry">
            <mxPoint x="400" y="370" as="sourcePoint" />
            <mxPoint x="450" y="320" as="targetPoint" />
            <Array as="points" />
            <mxPoint as="offset" />
          </mxGeometry>
        </mxCell>
        <mxCell id="Snfnm1RZUHgXp-elTZEX-8" value="" style="endArrow=classic;html=1;rounded=0;entryX=0.342;entryY=-0.017;entryDx=0;entryDy=0;exitX=1;exitY=1;exitDx=0;exitDy=0;entryPerimeter=0;" parent="1" source="Snfnm1RZUHgXp-elTZEX-1" target="Snfnm1RZUHgXp-elTZEX-2" edge="1">
          <mxGeometry width="50" height="50" relative="1" as="geometry">
            <mxPoint x="400" y="370" as="sourcePoint" />
            <mxPoint x="450" y="320" as="targetPoint" />
            <Array as="points" />
          </mxGeometry>
        </mxCell>
        <mxCell id="Snfnm1RZUHgXp-elTZEX-11" value="&lt;font style=&quot;font-size: 16px;&quot;&gt;Verarbeitete&lt;br&gt;Daten&lt;/font&gt;" style="edgeLabel;html=1;align=center;verticalAlign=middle;resizable=0;points=[];" parent="Snfnm1RZUHgXp-elTZEX-8" vertex="1" connectable="0">
          <mxGeometry x="0.3783" y="3" relative="1" as="geometry">
            <mxPoint x="-8" y="-36" as="offset" />
          </mxGeometry>
        </mxCell>
        <mxCell id="Snfnm1RZUHgXp-elTZEX-9" value="&lt;font style=&quot;font-size: 16px;&quot;&gt;Visualisierung&lt;br&gt;Anfordern&lt;/font&gt;" style="endArrow=classic;html=1;rounded=0;exitX=0.667;exitY=0;exitDx=0;exitDy=0;exitPerimeter=0;entryX=0;entryY=1;entryDx=0;entryDy=0;" parent="1" source="Snfnm1RZUHgXp-elTZEX-2" target="Snfnm1RZUHgXp-elTZEX-3" edge="1">
          <mxGeometry x="0.0999" y="21" width="50" height="50" relative="1" as="geometry">
            <mxPoint x="400" y="370" as="sourcePoint" />
            <mxPoint x="450" y="320" as="targetPoint" />
            <mxPoint as="offset" />
          </mxGeometry>
        </mxCell>
      </root>
    </mxGraphModel>
  </diagram>
</mxfile>
